<?xml version="1.0" standalone="no"?><!DOCTYPE svg PUBLIC "-//W3C//DTD SVG 1.1//EN" "http://www.w3.org/Graphics/SVG/1.1/DTD/svg11.dtd"><svg t="1535893571106" class="icon" style="" viewBox="0 0 1041 1024" version="1.1" xmlns="http://www.w3.org/2000/svg" p-id="2356" xmlns:xlink="http://www.w3.org/1999/xlink" width="203.3203125" height="200"><defs><style type="text/css"></style></defs><path d="M898.280233 284.302987c-5.919995-19.701489-26.974171-35.806422-46.818886-35.806422h-73.633917c-19.844715 0-36.061045-16.900631-36.061044-37.493301v-14.656762c0-20.592671 16.21633-37.477388 36.061044-37.477388h199.497467c19.844715 0 36.076959-16.900631 36.076959-37.52513V102.820129c0-20.592671-16.232244-37.493302-36.076959-37.493302H146.520434c-19.844715 0-36.076959 16.900631-36.076959 37.493302v18.523855c0 20.688155 16.232244 37.52513 36.076959 37.52513h199.481553c19.844715 0 36.076959 16.884717 36.076959 37.477388v14.656762c0 20.592671-16.232244 37.493302-36.076959 37.493301h-73.570261c-19.844715 0-40.89889 16.104933-46.834799 35.806422l-138.451497 461.393591c-5.919995 19.701489-5.824511 51.89544 0.190968 71.612843l52.325117 170.900071c5.999565 19.701489 27.165138 35.790508 46.993939 35.790508h750.645821c19.844715 0 40.994374-16.089019 47.009853-35.742766l52.325117-170.820501c6.031393-19.653747 6.110963-51.89544 0.190968-71.612843z" fill="#E2C9D2" p-id="2357"></path><path d="M869.364558 987.970783H118.575511c-26.321698 0-53.13673-20.290306-61.04597-46.150499L5.204424 770.904299c-6.858919-22.454605-6.954403-57.624468-0.190968-80.079073l138.451497-461.393591c7.797843-25.955677 34.549218-46.277811 60.88683-46.27781h73.665745c11.792248 0 21.372455-10.23268 21.372455-22.804712v-14.640848c0-12.572032-9.548379-22.804712-21.372455-22.804712H78.583717c-27.992665 0-50.765549-23.425357-50.765549-52.21372V52.165978C27.818168 23.409443 50.591052 0 78.583717 0h830.804463c27.992665 0 50.765549 23.409443 50.765549 52.165978v18.523855c0 28.788363-22.772884 52.21372-50.765549 52.21372H709.890713c-11.792248 0-21.372455 10.23268-21.372455 22.804712v14.640848c0 12.572032 9.548379 22.804712 21.372455 22.804712h73.633917c26.337612 0 53.088988 20.322133 60.886831 46.27781l138.54698 461.504989c6.747521 22.422777 6.652037 57.608554-0.222796 80.079072l-52.309203 170.836416c-7.925155 25.860193-34.740186 46.118671-61.061884 46.118671zM204.415439 212.531004c-13.383645 0-28.645137 11.83999-32.766854 25.350947l-138.451497 461.393591c-5.044727 16.789233-4.965157 46.245983 0.175054 63.035215l52.309203 170.900072c4.137631 13.52687 19.526435 25.462344 32.957822 25.462344h750.725391c13.431387 0 28.836105-11.83999 32.973736-25.350946l52.325117-170.900072c5.140211-16.789233 5.219781-46.245983 0.175054-63.019302l-138.546981-461.504988c-4.073975-13.510956-19.38321-25.350946-32.766854-25.350947h-73.633917c-27.976751 0-50.749635-23.409443-50.749634-52.181891v-14.640848c0-28.772449 22.772884-52.181892 50.749634-52.181892h199.497467c11.792248 0 21.388369-10.248594 21.388369-22.83654V52.165978c0-12.572032-9.548379-22.788798-21.388369-22.788798H78.583717c-11.792248 0-21.388369 10.216766-21.388369 22.788798v18.523855c0 12.587946 9.548379 22.83654 21.388369 22.83654h199.497467c27.976751 0 50.749635 23.409443 50.749634 52.181892v14.640848c0 28.772449-22.772884 52.181892-50.749634 52.181891z m289.634165 627.360333c-135.157306 0-245.075063-114.087216-245.075063-254.33699s109.949585-254.336991 245.075063-254.336991 245.075063 114.10313 245.075063 254.336991-109.997327 254.336991-245.154632 254.33699z m0-479.296801c-118.956889 0-215.729711 100.926367-215.729711 224.959811s96.772822 224.975725 215.729711 224.975725 215.666055-100.926367 215.666056-224.975725-96.72508-224.959811-215.745625-224.959811z" fill="#5B2D61" p-id="2358"></path><path d="M493.970035 825.218662c-127.311721 0-230.418301-107.291953-230.418302-239.664315s103.154322-239.648401 230.418302-239.648401 230.418301 107.291953 230.418301 239.648401-103.154322 239.664315-230.418301 239.664315z" fill="#FEE89C" p-id="2359"></path><path d="M493.970035 839.891337c-135.157306 0-245.075063-114.087216-245.075063-254.33699s109.949585-254.336991 245.075063-254.336991 245.075063 114.10313 245.075062 254.336991-109.917757 254.336991-245.075062 254.33699z m0-479.296801c-118.956889 0-215.729711 100.926367-215.729712 224.959811s96.772822 224.975725 215.729712 224.975725 215.745625-100.926367 215.745625-224.975725-96.72508-224.959811-215.745625-224.959811z" fill="#5B2D61" p-id="2360"></path><path d="M493.985949 554.426631a14.68859 14.68859 0 0 1-14.68859-14.68859V367.405713a14.68859 14.68859 0 1 1 29.377179 0v172.332328a14.704504 14.704504 0 0 1-14.688589 14.68859zM770.295351 726.229024l24.567979-16.108115 98.405595 150.094153-24.567979 16.108116zM712.1314 832.093495l24.566388-16.108116 70.912628 108.159264-24.567979 16.108116z" fill="#5B2D61" p-id="2361"></path><path d="M561.477075 573.809841l-9.946229 68.652845 51.163398 47.566842-68.652845 11.235259-29.170298 62.828335-32.480403-61.698443-69.178007-8.736767 48.569422-49.36512-13.590526-68.239082 62.510055 31.191371 60.775433-33.43524z" fill="#FFD7E9" p-id="2362"></path><path d="M505.284864 780.643645l-37.6047-71.453703-80.1109-10.169024 56.255866-57.178877-15.770739-79.10832 72.472197 36.156529 70.339726-38.68685-11.521711 79.442514 59.327262 55.141889-79.569825 13.033538z m-86.444659-92.412395l58.261027 7.352252 27.340192 51.959096 24.555248-52.89802 57.704037-9.436982-42.967706-39.991794 8.38666-57.863177-51.227054 28.183632-52.516085-26.2103 11.426227 57.290274z" fill="#5B2D61" p-id="2363"></path></svg>