<?xml version="1.0" standalone="no"?><!DOCTYPE svg PUBLIC "-//W3C//DTD SVG 1.1//EN" "http://www.w3.org/Graphics/SVG/1.1/DTD/svg11.dtd"><svg t="1535895051663" class="icon" style="" viewBox="0 0 1024 1024" version="1.1" xmlns="http://www.w3.org/2000/svg" p-id="7175" xmlns:xlink="http://www.w3.org/1999/xlink" width="200" height="200"><defs><style type="text/css"></style></defs><path d="M511.731894 77.091796c-72.744791 0-145.152914 18.522865-209.462592 53.581336-35.272341-24.254404-95.807043-50.478671-122.749672-56.148811-3.714602-1.084705-6.862291-1.542122-10.943236-1.603521l-2.535753 0.076748c-1.314948 0.01535-2.093684 0.046049-2.889817 0.198521-8.833179 1.465374-16.519232 6.233981-21.624507 13.402241-4.768607 6.678096-6.739495 14.824637-5.455245 22.189372 0.321318 4.860704 0.947582 10.101055 3.270487 15.528672 21.50478 44.488237 18.925025 106.664322 17.141402 131.023102-49.64263 62.769602-62.61099 114.316605-64.797795 124.764562-8.021697 22.618137-17.110703 103.20657-17.110703 121.476679 0 249.932306 192.024431 445.702038 437.158455 445.702038 241.342674 0 437.693644-195.189518 437.693644-435.095469C949.425537 272.265964 753.074567 77.091796 511.731894 77.091796zM592.423681 487.031329c0 31.389918-22.618137 56.912198-50.432623 56.912198-27.813462 0-50.431599-25.52228-50.431599-56.912198l0-59.357899c0-31.389918 22.618137-56.927547 50.431599-56.927547 27.815509 0 50.432623 25.537629 50.432623 56.927547L592.423681 487.031329zM770.343883 487.031329c0 31.389918-22.618137 56.912198-50.432623 56.912198-27.813462 0-50.432623-25.52228-50.432623-56.912198l0-59.357899c0-31.389918 22.620184-56.927547 50.432623-56.927547 27.815509 0 50.432623 25.537629 50.432623 56.927547L770.343883 487.031329z" p-id="7176" fill="#1296db"></path></svg>